{
  "accessors": [
    {
      "bufferView": 2,
      "componentType": 5126,
      "count": 4282,
      "max": [
        277.9999694824219,
        233.7862548828125,
        710.9381103515625
      ],
      "min": [
        -277.9999694824219,
        -233.78627014160156,
        -489.061767578125
      ],
      "type": "VEC3"
    },
    {
      "bufferView": 2,
      "byteOffset": 51384,
      "componentType": 5126,
      "count": 4282,
      "max": [
        1.0,
        1.0,
        1.0
      ],
      "min": [
        -1.0,
        -1.0,
        -1.0
      ],
      "type": "VEC3"
    },
    {
      "bufferView": 3,
      "componentType": 5126,
      "count": 4282,
      "max": [
        1.0,
        1.0,
        0.9999997615814209,
        1.0
      ],
      "min": [
        -0.9999959468841553,
        -1.0,
        -0.9999999403953552,
        1.0
      ],
      "type": "VEC4"
    },
    {
      "bufferView": 1,
      "componentType": 5126,
      "count": 4282,
      "max": [
        0.9951170086860657,
        0.9874809980392456
      ],
      "min": [
        0.004883000161498785,
        0.004883000161498785
      ],
      "type": "VEC2"
    },
    {
      "bufferView": 1,
      "byteOffset": 34256,
      "componentType": 5126,
      "count": 4282,
      "max": [
        0.9951170086860657,
        0.9874809980392456
      ],
      "min": [
        0.004883000161498785,
        0.004883000161498785
      ],
      "type": "VEC2"
    },
    {
      "bufferView": 1,
      "byteOffset": 68512,
      "componentType": 5126,
      "count": 4282,
      "max": [
        0.9951170086860657,
        0.9874809980392456
      ],
      "min": [
        0.004883000161498785,
        0.004883000161498785
      ],
      "type": "VEC2"
    },
    {
      "bufferView": 0,
      "componentType": 5125,
      "count": 7788,
      "type": "SCALAR"
    }
  ],
  "asset": {
    "extras": {
      "author": "Anthony Monteagudo (https://sketchfab.com/anthonymonteagudo)",
      "license": "CC-BY-4.0 (http://creativecommons.org/licenses/by/4.0/)",
      "source": "https://sketchfab.com/3d-models/garden-bridge-617cead9ee214a07bfb70b45bf246524",
      "title": "Garden Bridge"
    },
    "generator": "Sketchfab-12.68.0",
    "version": "2.0"
  },
  "bufferViews": [
    {
      "buffer": 0,
      "byteLength": 31152,
      "name": "floatBufferViews",
      "target": 34963
    },
    {
      "buffer": 0,
      "byteLength": 102768,
      "byteOffset": 31152,
      "byteStride": 8,
      "name": "floatBufferViews",
      "target": 34962
    },
    {
      "buffer": 0,
      "byteLength": 102768,
      "byteOffset": 133920,
      "byteStride": 12,
      "name": "floatBufferViews",
      "target": 34962
    },
    {
      "buffer": 0,
      "byteLength": 68512,
      "byteOffset": 236688,
      "byteStride": 16,
      "name": "floatBufferViews",
      "target": 34962
    }
  ],
  "buffers": [
    {
      "byteLength": 305200,
      "uri": "scene.bin"
    }
  ],
  "images": [
    {
      "uri": "textures/Bridge_MAT_baseColor.png"
    },
    {
      "uri": "textures/Bridge_MAT_metallicRoughness.png"
    },
    {
      "uri": "textures/Bridge_MAT_normal.png"
    }
  ],
  "materials": [
    {
      "doubleSided": true,
      "name": "Bridge_MAT",
      "normalTexture": {
        "index": 2
      },
      "pbrMetallicRoughness": {
        "baseColorTexture": {
          "index": 0
        },
        "metallicRoughnessTexture": {
          "index": 1
        },
        "roughnessFactor": 0.6
      }
    }
  ],
  "meshes": [
    {
      "name": "Bridge_Bridge_MAT_0",
      "primitives": [
        {
          "attributes": {
            "NORMAL": 1,
            "POSITION": 0,
            "TANGENT": 2,
            "TEXCOORD_0": 3,
            "TEXCOORD_1": 4,
            "TEXCOORD_2": 5
          },
          "indices": 6,
          "material": 0,
          "mode": 4
        }
      ]
    }
  ],
  "nodes": [
    {
      "children": [
        1
      ],
      "matrix": [
        -2.220446049250313e-16,
        6.123234262925839e-17,
        -1.0,
        0.0,
        -1.0,
        -2.465190328815662e-32,
        2.220446049250313e-16,
        0.0,
        0.0,
        1.0,
        6.123234262925839e-17,
        0.0,
        -110.93826293945313,
        -2.4633242765460112e-14,
        110.93826293945313,
        1.0
      ],
      "name": "Sketchfab_model"
    },
    {
      "children": [
        2
      ],
      "matrix": [
        1.0,
        0.0,
        0.0,
        0.0,
        0.0,
        0.0,
        1.0,
        0.0,
        0.0,
        -1.0,
        0.0,
        0.0,
        0.0,
        0.0,
        0.0,
        1.0
      ],
      "name": "12973425d87946c18eb261acd8f23dd2.fbx"
    },
    {
      "children": [
        3
      ],
      "name": "RootNode"
    },
    {
      "children": [
        4
      ],
      "name": "Bridge"
    },
    {
      "mesh": 0,
      "name": "Bridge_Bridge_MAT_0"
    }
  ],
  "samplers": [
    {
      "magFilter": 9729,
      "minFilter": 9987,
      "wrapS": 10497,
      "wrapT": 10497
    }
  ],
  "scene": 0,
  "scenes": [
    {
      "name": "Sketchfab_Scene",
      "nodes": [
        0
      ]
    }
  ],
  "textures": [
    {
      "sampler": 0,
      "source": 0
    },
    {
      "sampler": 0,
      "source": 1
    },
    {
      "sampler": 0,
      "source": 2
    }
  ]
}
