{
  "accessors": [
    {
      "bufferView": 2,
      "componentType": 5126,
      "count": 56,
      "max": [
        0.5756409764289856,
        0.30760401487350464,
        0.3130660057067871
      ],
      "min": [
        0.4808430075645447,
        -0.30760401487350464,
        0.22957399487495422
      ],
      "type": "VEC3"
    },
    {
      "bufferView": 2,
      "byteOffset": 672,
      "componentType": 5126,
      "count": 56,
      "max": [
        1.0,
        1.0,
        1.0
      ],
      "min": [
        -1.0,
        -1.0,
        -1.0
      ],
      "type": "VEC3"
    },
    {
      "bufferView": 3,
      "componentType": 5126,
      "count": 56,
      "max": [
        1.0,
        1.0,
        0.00016674994549248368,
        1.0
      ],
      "min": [
        -1.0,
        -1.0,
        -0.00013862988271284848,
        1.0
      ],
      "type": "VEC4"
    },
    {
      "bufferView": 1,
      "componentType": 5126,
      "count": 56,
      "max": [
        0.7341600060462952,
        0.34915199875831604
      ],
      "min": [
        0.4395900070667267,
        0.04679889976978302
      ],
      "type": "VEC2"
    },
    {
      "bufferView": 0,
      "componentType": 5125,
      "count": 84,
      "type": "SCALAR"
    },
    {
      "bufferView": 2,
      "byteOffset": 1344,
      "componentType": 5126,
      "count": 1380,
      "max": [
        1.0,
        0.30760401487350464,
        0.3130660057067871
      ],
      "min": [
        0.630856990814209,
        -0.30760401487350464,
        0.22957399487495422
      ],
      "type": "VEC3"
    },
    {
      "bufferView": 2,
      "byteOffset": 17904,
      "componentType": 5126,
      "count": 1380,
      "max": [
        1.0,
        1.0,
        1.0
      ],
      "min": [
        -1.0,
        -1.0,
        -1.0
      ],
      "type": "VEC3"
    },
    {
      "bufferView": 3,
      "byteOffset": 896,
      "componentType": 5126,
      "count": 1380,
      "max": [
        1.0,
        1.0,
        1.0,
        1.0
      ],
      "min": [
        -1.0,
        -1.0,
        -1.0,
        1.0
      ],
      "type": "VEC4"
    },
    {
      "bufferView": 1,
      "byteOffset": 448,
      "componentType": 5126,
      "count": 1380,
      "max": [
        0.5616170167922974,
        0.4531500041484833
      ],
      "min": [
        0.01347769983112812,
        0.005534389987587929
      ],
      "type": "VEC2"
    },
    {
      "bufferView": 0,
      "byteOffset": 336,
      "componentType": 5125,
      "count": 2568,
      "type": "SCALAR"
    },
    {
      "bufferView": 2,
      "byteOffset": 34464,
      "componentType": 5126,
      "count": 4486,
      "max": [
        -0.3437289893627167,
        0.30760401487350464,
        0.3130660057067871
      ],
      "min": [
        -1.0,
        -0.30760401487350464,
        -0.3130660057067871
      ],
      "type": "VEC3"
    },
    {
      "bufferView": 2,
      "byteOffset": 88296,
      "componentType": 5126,
      "count": 4486,
      "max": [
        1.0,
        1.0,
        1.0
      ],
      "min": [
        -1.0,
        -1.0,
        -1.0
      ],
      "type": "VEC3"
    },
    {
      "bufferView": 3,
      "byteOffset": 22976,
      "componentType": 5126,
      "count": 4486,
      "max": [
        1.0,
        1.0,
        1.0,
        1.0
      ],
      "min": [
        -1.0,
        -1.0,
        -1.0,
        1.0
      ],
      "type": "VEC4"
    },
    {
      "bufferView": 1,
      "byteOffset": 11488,
      "componentType": 5126,
      "count": 4486,
      "max": [
        0.997177004814148,
        0.99692302942276
      ],
      "min": [
        0.0020509199239313602,
        0.08886180073022842
      ],
      "type": "VEC2"
    },
    {
      "bufferView": 0,
      "byteOffset": 10608,
      "componentType": 5125,
      "count": 7974,
      "type": "SCALAR"
    },
    {
      "bufferView": 2,
      "byteOffset": 142128,
      "componentType": 5126,
      "count": 2292,
      "max": [
        0.3981029987335205,
        0.30760401487350464,
        0.3130660057067871
      ],
      "min": [
        -0.2639960050582886,
        -0.30760401487350464,
        0.22957399487495422
      ],
      "type": "VEC3"
    },
    {
      "bufferView": 2,
      "byteOffset": 169632,
      "componentType": 5126,
      "count": 2292,
      "max": [
        1.0,
        1.0,
        1.0
      ],
      "min": [
        -1.0,
        -1.0,
        -1.0
      ],
      "type": "VEC3"
    },
    {
      "bufferView": 3,
      "byteOffset": 94752,
      "componentType": 5126,
      "count": 2292,
      "max": [
        1.0,
        1.0,
        1.0,
        1.0
      ],
      "min": [
        -1.0,
        -1.0,
        -1.0,
        1.0
      ],
      "type": "VEC4"
    },
    {
      "bufferView": 1,
      "byteOffset": 47376,
      "componentType": 5126,
      "count": 2292,
      "max": [
        0.9983220100402832,
        0.77948397397995
      ],
      "min": [
        0.02458460070192814,
        0.002584710018709302
      ],
      "type": "VEC2"
    },
    {
      "bufferView": 0,
      "byteOffset": 42504,
      "componentType": 5125,
      "count": 4080,
      "type": "SCALAR"
    }
  ],
  "asset": {
    "extras": {
      "author": "mc477 (https://sketchfab.com/mc477)",
      "license": "CC-BY-4.0 (http://creativecommons.org/licenses/by/4.0/)",
      "source": "https://sketchfab.com/3d-models/modular-brick-wall-903a5db2efda41cd86ea81d7bb7a6e2d",
      "title": "Modular brick Wall"
    },
    "generator": "Sketchfab-12.66.0",
    "version": "2.0"
  },
  "bufferViews": [
    {
      "buffer": 0,
      "byteLength": 58824,
      "name": "floatBufferViews",
      "target": 34963
    },
    {
      "buffer": 0,
      "byteLength": 65712,
      "byteOffset": 58824,
      "byteStride": 8,
      "name": "floatBufferViews",
      "target": 34962
    },
    {
      "buffer": 0,
      "byteLength": 197136,
      "byteOffset": 124536,
      "byteStride": 12,
      "name": "floatBufferViews",
      "target": 34962
    },
    {
      "buffer": 0,
      "byteLength": 131424,
      "byteOffset": 321672,
      "byteStride": 16,
      "name": "floatBufferViews",
      "target": 34962
    }
  ],
  "buffers": [
    {
      "byteLength": 453096,
      "uri": "scene.bin"
    }
  ],
  "images": [
    {
      "uri": "textures/wall_mat_baseColor.jpeg"
    },
    {
      "uri": "textures/wall_mat_metallicRoughness.png"
    },
    {
      "uri": "textures/wall_mat_normal.jpeg"
    }
  ],
  "materials": [
    {
      "doubleSided": true,
      "name": "wall_mat",
      "normalTexture": {
        "index": 2
      },
      "occlusionTexture": {
        "index": 1
      },
      "pbrMetallicRoughness": {
        "baseColorTexture": {
          "index": 0
        },
        "metallicRoughnessTexture": {
          "index": 1
        }
      }
    }
  ],
  "meshes": [
    {
      "name": "defaultMaterial",
      "primitives": [
        {
          "attributes": {
            "NORMAL": 1,
            "POSITION": 0,
            "TANGENT": 2,
            "TEXCOORD_0": 3
          },
          "indices": 4,
          "material": 0,
          "mode": 4
        }
      ]
    },
    {
      "name": "defaultMaterial",
      "primitives": [
        {
          "attributes": {
            "NORMAL": 6,
            "POSITION": 5,
            "TANGENT": 7,
            "TEXCOORD_0": 8
          },
          "indices": 9,
          "material": 0,
          "mode": 4
        }
      ]
    },
    {
      "name": "defaultMaterial",
      "primitives": [
        {
          "attributes": {
            "NORMAL": 11,
            "POSITION": 10,
            "TANGENT": 12,
            "TEXCOORD_0": 13
          },
          "indices": 14,
          "material": 0,
          "mode": 4
        }
      ]
    },
    {
      "name": "defaultMaterial",
      "primitives": [
        {
          "attributes": {
            "NORMAL": 16,
            "POSITION": 15,
            "TANGENT": 17,
            "TEXCOORD_0": 18
          },
          "indices": 19,
          "material": 0,
          "mode": 4
        }
      ]
    }
  ],
  "nodes": [
    {
      "children": [
        1
      ],
      "matrix": [
        1.0,
        0.0,
        0.0,
        0.0,
        0.0,
        2.220446049250313e-16,
        -1.0,
        0.0,
        0.0,
        1.0,
        2.220446049250313e-16,
        0.0,
        0.0,
        0.0,
        0.0,
        1.0
      ],
      "name": "Sketchfab_model"
    },
    {
      "children": [
        2,
        4,
        6,
        8
      ],
      "matrix": [
        1.0,
        0.0,
        0.0,
        0.0,
        0.0,
        -4.371139006309477e-08,
        0.999999999999999,
        0.0,
        0.0,
        -0.999999999999999,
        -4.371139006309477e-08,
        0.0,
        0.0,
        0.0,
        0.0,
        1.0
      ],
      "name": "Collada visual scene group"
    },
    {
      "children": [
        3
      ],
      "name": "modular_wall_pier_low"
    },
    {
      "mesh": 0,
      "name": "defaultMaterial"
    },
    {
      "children": [
        5
      ],
      "name": "modular_wall_straight_small_low"
    },
    {
      "mesh": 1,
      "name": "defaultMaterial"
    },
    {
      "children": [
        7
      ],
      "name": "modular_wall_corner_low"
    },
    {
      "mesh": 2,
      "name": "defaultMaterial"
    },
    {
      "children": [
        9
      ],
      "name": "modular_wall_straight_low"
    },
    {
      "mesh": 3,
      "name": "defaultMaterial"
    }
  ],
  "samplers": [
    {
      "magFilter": 9729,
      "minFilter": 9987,
      "wrapS": 10497,
      "wrapT": 10497
    }
  ],
  "scene": 0,
  "scenes": [
    {
      "name": "Sketchfab_Scene",
      "nodes": [
        0
      ]
    }
  ],
  "textures": [
    {
      "sampler": 0,
      "source": 0
    },
    {
      "sampler": 0,
      "source": 1
    },
    {
      "sampler": 0,
      "source": 2
    }
  ]
}
