{
  "accessors": [
    {
      "bufferView": 2,
      "componentType": 5126,
      "count": 2500,
      "max": [
        120.21021270751953,
        38.6197395324707,
        113.4482192993164
      ],
      "min": [
        -126.2767333984375,
        -34.46451187133789,
        -132.5126495361328
      ],
      "type": "VEC3"
    },
    {
      "bufferView": 2,
      "byteOffset": 30000,
      "componentType": 5126,
      "count": 2500,
      "max": [
        0.9981721639633179,
        0.9965353012084961,
        0.9992497563362122
      ],
      "min": [
        -0.9981721639633179,
        -0.9965353012084961,
        -0.9992497563362122
      ],
      "type": "VEC3"
    },
    {
      "bufferView": 1,
      "componentType": 5126,
      "count": 2500,
      "max": [
        1.0,
        1.0
      ],
      "min": [
        0.0,
        0.0
      ],
      "type": "VEC2"
    },
    {
      "bufferView": 0,
      "componentType": 5125,
      "count": 6000,
      "type": "SCALAR"
    },
    {
      "bufferView": 3,
      "componentType": 5126,
      "count": 2,
      "max": [
        8.333330154418945
      ],
      "min": [
        0.041669998317956924
      ],
      "type": "SCALAR"
    },
    {
      "bufferView": 4,
      "componentType": 5126,
      "count": 2,
      "max": [
        0.09984000027179718,
        -0.047529999166727066,
        0.09717000275850296
      ],
      "min": [
        0.09984000027179718,
        -0.047529999166727066,
        0.09717000275850296
      ],
      "type": "VEC3"
    },
    {
      "bufferView": 3,
      "byteOffset": 8,
      "componentType": 5126,
      "count": 200,
      "max": [
        8.333330154418945
      ],
      "min": [
        0.041669998317956924
      ],
      "type": "SCALAR"
    },
    {
      "bufferView": 5,
      "componentType": 5126,
      "count": 200,
      "max": [
        0.7071099877357483,
        0.7071099877357483,
        0.7071099877357483,
        0.7071099877357483
      ],
      "min": [
        -0.0,
        -0.7070199847221375,
        -0.7070199847221375,
        -0.0
      ],
      "type": "VEC4"
    },
    {
      "bufferView": 3,
      "byteOffset": 808,
      "componentType": 5126,
      "count": 2,
      "max": [
        8.333330154418945
      ],
      "min": [
        0.041669998317956924
      ],
      "type": "SCALAR"
    },
    {
      "bufferView": 4,
      "byteOffset": 24,
      "componentType": 5126,
      "count": 2,
      "max": [
        -0.8491899967193604,
        -0.8491899967193604,
        -0.8491899967193604
      ],
      "min": [
        -0.8491899967193604,
        -0.8491899967193604,
        -0.8491899967193604
      ],
      "type": "VEC3"
    },
    {
      "bufferView": 3,
      "byteOffset": 816,
      "componentType": 5126,
      "count": 2,
      "max": [
        8.333330154418945
      ],
      "min": [
        0.041669998317956924
      ],
      "type": "SCALAR"
    },
    {
      "bufferView": 4,
      "byteOffset": 48,
      "componentType": 5126,
      "count": 2,
      "max": [
        0.5842400193214417,
        0.07195000350475311,
        0.798740029335022
      ],
      "min": [
        0.5842400193214417,
        0.07195000350475311,
        0.798740029335022
      ],
      "type": "VEC3"
    },
    {
      "bufferView": 3,
      "byteOffset": 824,
      "componentType": 5126,
      "count": 200,
      "max": [
        8.333330154418945
      ],
      "min": [
        0.041669998317956924
      ],
      "type": "SCALAR"
    },
    {
      "bufferView": 5,
      "byteOffset": 3200,
      "componentType": 5126,
      "count": 200,
      "max": [
        0.32041001319885254,
        0.32041001319885254,
        0.9472500085830688,
        0.9472699761390686
      ],
      "min": [
        -0.026510000228881836,
        -0.31867000460624695,
        -0.94718998670578,
        0.0077599999494850636
      ],
      "type": "VEC4"
    },
    {
      "bufferView": 3,
      "byteOffset": 1624,
      "componentType": 5126,
      "count": 2,
      "max": [
        8.333330154418945
      ],
      "min": [
        0.041669998317956924
      ],
      "type": "SCALAR"
    },
    {
      "bufferView": 4,
      "byteOffset": 72,
      "componentType": 5126,
      "count": 2,
      "max": [
        -0.8491899967193604,
        -0.8491899967193604,
        -0.8491899967193604
      ],
      "min": [
        -0.8491899967193604,
        -0.8491899967193604,
        -0.8491899967193604
      ],
      "type": "VEC3"
    },
    {
      "bufferView": 3,
      "byteOffset": 1632,
      "componentType": 5126,
      "count": 2,
      "max": [
        8.333330154418945
      ],
      "min": [
        0.041669998317956924
      ],
      "type": "SCALAR"
    },
    {
      "bufferView": 4,
      "byteOffset": 96,
      "componentType": 5126,
      "count": 2,
      "max": [
        0.9888499975204468,
        -0.8208600282669067,
        0.7321699857711792
      ],
      "min": [
        0.9888499975204468,
        -0.8208600282669067,
        0.7321699857711792
      ],
      "type": "VEC3"
    },
    {
      "bufferView": 3,
      "byteOffset": 1640,
      "componentType": 5126,
      "count": 200,
      "max": [
        8.333330154418945
      ],
      "min": [
        0.041669998317956924
      ],
      "type": "SCALAR"
    },
    {
      "bufferView": 5,
      "byteOffset": 6400,
      "componentType": 5126,
      "count": 200,
      "max": [
        0.526639997959137,
        0.5266500115394592,
        0.8500699996948242,
        0.8500699996948242
      ],
      "min": [
        -0.0045900000259280205,
        -0.5264400243759155,
        -0.8499400019645691,
        0.002859999891370535
      ],
      "type": "VEC4"
    },
    {
      "bufferView": 3,
      "byteOffset": 2440,
      "componentType": 5126,
      "count": 2,
      "max": [
        8.333330154418945
      ],
      "min": [
        0.041669998317956924
      ],
      "type": "SCALAR"
    },
    {
      "bufferView": 4,
      "byteOffset": 120,
      "componentType": 5126,
      "count": 2,
      "max": [
        -0.8491899967193604,
        -0.8491899967193604,
        -0.8491899967193604
      ],
      "min": [
        -0.8491899967193604,
        -0.8491899967193604,
        -0.8491899967193604
      ],
      "type": "VEC3"
    }
  ],
  "animations": [
    {
      "channels": [
        {
          "sampler": 0,
          "target": {
            "node": 3,
            "path": "translation"
          }
        },
        {
          "sampler": 1,
          "target": {
            "node": 3,
            "path": "rotation"
          }
        },
        {
          "sampler": 2,
          "target": {
            "node": 3,
            "path": "scale"
          }
        },
        {
          "sampler": 3,
          "target": {
            "node": 5,
            "path": "translation"
          }
        },
        {
          "sampler": 4,
          "target": {
            "node": 5,
            "path": "rotation"
          }
        },
        {
          "sampler": 5,
          "target": {
            "node": 5,
            "path": "scale"
          }
        },
        {
          "sampler": 6,
          "target": {
            "node": 2,
            "path": "translation"
          }
        },
        {
          "sampler": 7,
          "target": {
            "node": 2,
            "path": "rotation"
          }
        },
        {
          "sampler": 8,
          "target": {
            "node": 2,
            "path": "scale"
          }
        }
      ],
      "name": "Take 01",
      "samplers": [
        {
          "input": 4,
          "interpolation": "LINEAR",
          "output": 5
        },
        {
          "input": 6,
          "interpolation": "LINEAR",
          "output": 7
        },
        {
          "input": 8,
          "interpolation": "LINEAR",
          "output": 9
        },
        {
          "input": 10,
          "interpolation": "LINEAR",
          "output": 11
        },
        {
          "input": 12,
          "interpolation": "LINEAR",
          "output": 13
        },
        {
          "input": 14,
          "interpolation": "LINEAR",
          "output": 15
        },
        {
          "input": 16,
          "interpolation": "LINEAR",
          "output": 17
        },
        {
          "input": 18,
          "interpolation": "LINEAR",
          "output": 19
        },
        {
          "input": 20,
          "interpolation": "LINEAR",
          "output": 21
        }
      ]
    }
  ],
  "asset": {
    "extras": {
      "author": "1catalogue (https://sketchfab.com/1catalogue)",
      "license": "CC-BY-4.0 (http://creativecommons.org/licenses/by/4.0/)",
      "source": "https://sketchfab.com/3d-models/randomness-dd376218653a44b4818ae8dc2becfe5f",
      "title": "Randomness"
    },
    "generator": "Sketchfab-12.65.0",
    "version": "2.0"
  },
  "bufferViews": [
    {
      "buffer": 0,
      "byteLength": 24000,
      "name": "floatBufferViews",
      "target": 34963
    },
    {
      "buffer": 0,
      "byteLength": 20000,
      "byteOffset": 24000,
      "byteStride": 8,
      "name": "floatBufferViews",
      "target": 34962
    },
    {
      "buffer": 0,
      "byteLength": 60000,
      "byteOffset": 44000,
      "byteStride": 12,
      "name": "floatBufferViews",
      "target": 34962
    },
    {
      "buffer": 0,
      "byteLength": 2448,
      "byteOffset": 104000,
      "name": "floatBufferViews"
    },
    {
      "buffer": 0,
      "byteLength": 144,
      "byteOffset": 106448,
      "byteStride": 12,
      "name": "floatBufferViews"
    },
    {
      "buffer": 0,
      "byteLength": 9600,
      "byteOffset": 106592,
      "byteStride": 16,
      "name": "floatBufferViews"
    }
  ],
  "buffers": [
    {
      "byteLength": 116192,
      "uri": "scene.bin"
    }
  ],
  "extensionsRequired": [
    "KHR_materials_pbrSpecularGlossiness"
  ],
  "extensionsUsed": [
    "KHR_materials_pbrSpecularGlossiness"
  ],
  "materials": [
    {
      "alphaMode": "BLEND",
      "doubleSided": true,
      "extensions": {
        "KHR_materials_pbrSpecularGlossiness": {
          "diffuseFactor": [
            0.9213560469775339,
            0.8882871645560073,
            0.5177458153172352,
            0.7238948170731707
          ],
          "glossinessFactor": 1.0,
          "specularFactor": [
            1.0,
            1.0,
            1.0
          ]
        }
      },
      "name": "Default"
    }
  ],
  "meshes": [
    {
      "name": "Icosahedron_65_0",
      "primitives": [
        {
          "attributes": {
            "NORMAL": 1,
            "POSITION": 0,
            "TEXCOORD_0": 2
          },
          "indices": 3,
          "material": 0,
          "mode": 4
        }
      ]
    }
  ],
  "nodes": [
    {
      "children": [
        1
      ],
      "matrix": [
        0.10485533624887466,
        0.0,
        0.0,
        0.0,
        0.0,
        2.328256171166269e-17,
        -0.10485533624887466,
        0.0,
        0.0,
        0.10485533624887466,
        2.328256171166269e-17,
        0.0,
        0.0,
        0.0,
        0.0,
        1.0
      ],
      "name": "Sketchfab_model"
    },
    {
      "children": [
        2,
        3,
        5
      ],
      "name": "Root"
    },
    {
      "name": "Camera",
      "rotation": [
        -0.20512975752353668,
        0.9093289375305176,
        -0.14233984053134918,
        -0.33283960819244385
      ],
      "scale": [
        -0.8491899967193604,
        -0.8491899967193604,
        -0.8491899967193604
      ],
      "translation": [
        0.9888499975204468,
        -0.8208600282669067,
        0.7321699857711792
      ]
    },
    {
      "children": [
        4
      ],
      "name": "Icosahedron_65",
      "rotation": [
        0.0,
        0.0,
        1.0,
        -0.0
      ],
      "scale": [
        -0.8491899967193604,
        -0.8491899967193604,
        -0.8491899967193604
      ],
      "translation": [
        0.09984000027179718,
        -0.047529999166727066,
        0.09717000275850296
      ]
    },
    {
      "mesh": 0,
      "name": "Icosahedron_65_0"
    },
    {
      "children": [
        6
      ],
      "name": "Lamp",
      "rotation": [
        -0.19306914508342743,
        -0.310788631439209,
        -0.8631361722946167,
        0.3480384647846222
      ],
      "scale": [
        -0.8491899967193604,
        -0.8491899967193604,
        -0.8491899967193604
      ],
      "translation": [
        0.5842400193214417,
        0.07195000350475311,
        0.798740029335022
      ]
    },
    {
      "name": "Lamp"
    }
  ],
  "scene": 0,
  "scenes": [
    {
      "name": "Sketchfab_Scene",
      "nodes": [
        0
      ]
    }
  ]
}
