{
  "accessors": [
    {
      "bufferView": 2,
      "componentType": 5126,
      "count": 12517,
      "max": [
        0.093490369617939,
        0.613702118396759,
        0.21151410043239594
      ],
      "min": [
        -0.093490369617939,
        0.0,
        -0.13861888647079468
      ],
      "type": "VEC3"
    },
    {
      "bufferView": 2,
      "byteOffset": 150204,
      "componentType": 5126,
      "count": 12517,
      "max": [
        1.0,
        1.0,
        1.0
      ],
      "min": [
        -1.0,
        -1.0,
        -1.0
      ],
      "type": "VEC3"
    },
    {
      "bufferView": 3,
      "componentType": 5126,
      "count": 12517,
      "max": [
        1.0,
        1.0,
        1.0,
        1.0
      ],
      "min": [
        -1.0,
        -1.0,
        -1.0,
        -1.0
      ],
      "type": "VEC4"
    },
    {
      "bufferView": 1,
      "componentType": 5126,
      "count": 12517,
      "max": [
        0.9946467280387878,
        0.9974703788757324
      ],
      "min": [
        0.001634756801649928,
        0.0001543335383757949
      ],
      "type": "VEC2"
    },
    {
      "bufferView": 1,
      "byteOffset": 100136,
      "componentType": 5126,
      "count": 12517,
      "max": [
        0.9946467280387878,
        0.9974703788757324
      ],
      "min": [
        0.001634756801649928,
        0.0001543335383757949
      ],
      "type": "VEC2"
    },
    {
      "bufferView": 1,
      "byteOffset": 200272,
      "componentType": 5126,
      "count": 12517,
      "max": [
        0.9946467280387878,
        0.9974703788757324
      ],
      "min": [
        0.001634756801649928,
        0.0001543335383757949
      ],
      "type": "VEC2"
    },
    {
      "bufferView": 1,
      "byteOffset": 300408,
      "componentType": 5126,
      "count": 12517,
      "max": [
        0.9946467280387878,
        0.9974703788757324
      ],
      "min": [
        0.001634756801649928,
        0.0001543335383757949
      ],
      "type": "VEC2"
    },
    {
      "bufferView": 1,
      "byteOffset": 400544,
      "componentType": 5126,
      "count": 12517,
      "max": [
        0.9946467280387878,
        0.9974703788757324
      ],
      "min": [
        0.001634756801649928,
        0.0001543335383757949
      ],
      "type": "VEC2"
    },
    {
      "bufferView": 0,
      "componentType": 5125,
      "count": 29964,
      "type": "SCALAR"
    }
  ],
  "asset": {
    "extras": {
      "author": "AlfonsoToro (https://sketchfab.com/AlfonsoToro)",
      "license": "CC-BY-4.0 (http://creativecommons.org/licenses/by/4.0/)",
      "source": "https://sketchfab.com/3d-models/harp-30eb1bb7c1ae48fa97a500fe4e8faf66",
      "title": "Harp"
    },
    "generator": "Sketchfab-12.63.0",
    "version": "2.0"
  },
  "bufferViews": [
    {
      "buffer": 0,
      "byteLength": 119856,
      "name": "floatBufferViews",
      "target": 34963
    },
    {
      "buffer": 0,
      "byteLength": 500680,
      "byteOffset": 119856,
      "byteStride": 8,
      "name": "floatBufferViews",
      "target": 34962
    },
    {
      "buffer": 0,
      "byteLength": 300408,
      "byteOffset": 620536,
      "byteStride": 12,
      "name": "floatBufferViews",
      "target": 34962
    },
    {
      "buffer": 0,
      "byteLength": 200272,
      "byteOffset": 920944,
      "byteStride": 16,
      "name": "floatBufferViews",
      "target": 34962
    }
  ],
  "buffers": [
    {
      "byteLength": 1121216,
      "uri": "scene.bin"
    }
  ],
  "images": [
    {
      "uri": "textures/Harp_baseColor.jpeg"
    },
    {
      "uri": "textures/Harp_metallicRoughness.png"
    },
    {
      "uri": "textures/Harp_normal.png"
    }
  ],
  "materials": [
    {
      "name": "Harp",
      "normalTexture": {
        "index": 2,
        "scale": 0.17764020458934385
      },
      "occlusionTexture": {
        "index": 1
      },
      "pbrMetallicRoughness": {
        "baseColorTexture": {
          "index": 0
        },
        "metallicFactor": 0.44143113143760754,
        "metallicRoughnessTexture": {
          "index": 1
        },
        "roughnessFactor": 0.07086768657933237
      }
    }
  ],
  "meshes": [
    {
      "name": "Object_0",
      "primitives": [
        {
          "attributes": {
            "NORMAL": 1,
            "POSITION": 0,
            "TANGENT": 2,
            "TEXCOORD_0": 3,
            "TEXCOORD_1": 4,
            "TEXCOORD_2": 5,
            "TEXCOORD_3": 6,
            "TEXCOORD_4": 7
          },
          "indices": 8,
          "material": 0,
          "mode": 4
        }
      ]
    }
  ],
  "nodes": [
    {
      "children": [
        1
      ],
      "matrix": [
        1.0,
        0.0,
        0.0,
        0.0,
        0.0,
        2.220446049250313e-16,
        -1.0,
        0.0,
        0.0,
        1.0,
        2.220446049250313e-16,
        0.0,
        0.0,
        0.0,
        0.0,
        1.0
      ],
      "name": "Sketchfab_model"
    },
    {
      "children": [
        2
      ],
      "name": "root"
    },
    {
      "children": [
        3
      ],
      "matrix": [
        1.0,
        0.0,
        0.0,
        0.0,
        0.0,
        2.220446049250313e-16,
        1.0,
        0.0,
        0.0,
        -1.0,
        2.220446049250313e-16,
        0.0,
        0.0,
        0.0,
        0.0,
        1.0
      ],
      "name": "GLTF_SceneRootNode"
    },
    {
      "children": [
        4
      ],
      "name": "Harp_0"
    },
    {
      "mesh": 0,
      "name": "Object_4"
    }
  ],
  "samplers": [
    {
      "magFilter": 9729,
      "minFilter": 9729,
      "wrapS": 10497,
      "wrapT": 10497
    },
    {
      "magFilter": 9729,
      "minFilter": 9987,
      "wrapS": 10497,
      "wrapT": 10497
    }
  ],
  "scene": 0,
  "scenes": [
    {
      "name": "Sketchfab_Scene",
      "nodes": [
        0
      ]
    }
  ],
  "textures": [
    {
      "sampler": 0,
      "source": 0
    },
    {
      "sampler": 0,
      "source": 1
    },
    {
      "sampler": 1,
      "source": 2
    }
  ]
}
